<?xml version="1.0" encoding="UTF-8" standalone="no"?>
<!DOCTYPE svg PUBLIC "-//W3C//DTD SVG 1.1//EN"
 "http://www.w3.org/Graphics/SVG/1.1/DTD/svg11.dtd">
<!-- Generated by graphviz version 14.1.2 (0)
 -->
<!-- Title: pastafarianism Pages: 1 -->
<svg width="4572pt" height="342pt"
 viewBox="0.00 0.00 4572.00 342.00" xmlns="http://www.w3.org/2000/svg" xmlns:xlink="http://www.w3.org/1999/xlink">
<g id="graph0" class="graph" transform="scale(1 1) rotate(0) translate(28.8 312.93)">
<title>pastafarianism</title>
<polygon fill="white" stroke="none" points="-28.8,28.8 -28.8,-312.93 4543.16,-312.93 4543.16,28.8 -28.8,28.8"/>
<!-- Root -->
<g id="node1" class="node">
<title>Root</title>
<polygon fill="orange" stroke="black" points="957.18,-284.13 903.18,-284.13 903.18,-248.13 957.18,-248.13 957.18,-284.13"/>
<text xml:space="preserve" text-anchor="middle" x="930.18" y="-264.33" font-family="Times,serif" font-size="9.00">Ⓜ Root</text>
</g>
<!-- Initialization -->
<g id="node2" class="node">
<title>Initialization</title>
<polygon fill="orange" stroke="black" points="238.43,-212.13 151.93,-212.13 151.93,-176.13 238.43,-176.13 238.43,-212.13"/>
<text xml:space="preserve" text-anchor="middle" x="195.18" y="-192.33" font-family="Times,serif" font-size="9.00">Ⓜ Initialization</text>
</g>
<!-- Root&#45;&gt;Initialization -->
<g id="edge1" class="edge">
<title>Root&#45;&gt;Initialization</title>
<path fill="none" stroke="black" d="M902.7,-262.52C794.48,-252.21 396.4,-214.3 249.82,-200.34"/>
<polygon fill="black" stroke="black" points="250.27,-196.87 239.99,-199.4 249.61,-203.83 250.27,-196.87"/>
</g>
<!-- Mapping Phase -->
<g id="node5" class="node">
<title>Mapping Phase</title>
<polygon fill="cyan" stroke="black" points="577.05,-186.68 577.05,-201.59 544.32,-212.13 498.03,-212.13 465.3,-201.59 465.3,-186.68 498.03,-176.13 544.32,-176.13 577.05,-186.68"/>
<text xml:space="preserve" text-anchor="middle" x="521.18" y="-191.21" font-family="Times,serif" font-size="9.00">Mapping Phase</text>
</g>
<!-- Root&#45;&gt;Mapping Phase -->
<g id="edge4" class="edge">
<title>Root&#45;&gt;Mapping Phase</title>
<path fill="none" stroke="black" d="M902.7,-260.43C837.69,-249.31 673.11,-221.14 582.8,-205.68"/>
<polygon fill="black" stroke="black" points="583.58,-202.26 573.13,-204.03 582.4,-209.16 583.58,-202.26"/>
</g>
<!-- Return to Origin -->
<g id="node10" class="node">
<title>Return to Origin</title>
<ellipse fill="gray" stroke="black" cx="869.18" cy="-194.13" rx="55.18" ry="18"/>
<text xml:space="preserve" text-anchor="middle" x="869.18" y="-191.21" font-family="Times,serif" font-size="9.00">Return to Origin</text>
</g>
<!-- Root&#45;&gt;Return to Origin -->
<g id="edge9" class="edge">
<title>Root&#45;&gt;Return to Origin</title>
<path fill="none" stroke="black" d="M915.1,-247.83C907.9,-239.57 899.15,-229.53 891.22,-220.43"/>
<polygon fill="black" stroke="black" points="893.86,-218.14 884.66,-212.9 888.59,-222.74 893.86,-218.14"/>
</g>
<!-- Handle Jar 1 -->
<g id="node11" class="node">
<title>Handle Jar 1</title>
<polygon fill="orange" stroke="black" points="1035.43,-212.13 948.93,-212.13 948.93,-176.13 1035.43,-176.13 1035.43,-212.13"/>
<text xml:space="preserve" text-anchor="middle" x="992.18" y="-192.33" font-family="Times,serif" font-size="9.00">Ⓜ Handle Jar 1</text>
</g>
<!-- Root&#45;&gt;Handle Jar 1 -->
<g id="edge10" class="edge">
<title>Root&#45;&gt;Handle Jar 1</title>
<path fill="none" stroke="black" d="M945.5,-247.83C952.71,-239.69 961.45,-229.82 969.41,-220.83"/>
<polygon fill="black" stroke="black" points="972.01,-223.18 976.02,-213.37 966.77,-218.54 972.01,-223.18"/>
</g>
<!-- Handle Jar 2 -->
<g id="node27" class="node">
<title>Handle Jar 2</title>
<polygon fill="orange" stroke="black" points="2219.43,-212.13 2132.93,-212.13 2132.93,-176.13 2219.43,-176.13 2219.43,-212.13"/>
<text xml:space="preserve" text-anchor="middle" x="2176.18" y="-192.33" font-family="Times,serif" font-size="9.00">Ⓜ Handle Jar 2</text>
</g>
<!-- Root&#45;&gt;Handle Jar 2 -->
<g id="edge26" class="edge">
<title>Root&#45;&gt;Handle Jar 2</title>
<path fill="none" stroke="black" d="M957.65,-263.59C1115.26,-254.74 1904.98,-210.37 2121.31,-198.22"/>
<polygon fill="black" stroke="black" points="2121.36,-201.72 2131.15,-197.66 2120.97,-194.73 2121.36,-201.72"/>
</g>
<!-- Handle Jar 3 -->
<g id="node43" class="node">
<title>Handle Jar 3</title>
<polygon fill="orange" stroke="black" points="3539.43,-212.13 3452.93,-212.13 3452.93,-176.13 3539.43,-176.13 3539.43,-212.13"/>
<text xml:space="preserve" text-anchor="middle" x="3496.18" y="-192.33" font-family="Times,serif" font-size="9.00">Ⓜ Handle Jar 3</text>
</g>
<!-- Root&#45;&gt;Handle Jar 3 -->
<g id="edge42" class="edge">
<title>Root&#45;&gt;Handle Jar 3</title>
<path fill="none" stroke="black" d="M957.26,-264.39C1206.04,-257.61 3092.97,-206.13 3441.06,-196.64"/>
<polygon fill="black" stroke="black" points="3441.14,-200.14 3451.04,-196.36 3440.95,-193.14 3441.14,-200.14"/>
</g>
<!-- Check Hardware -->
<g id="node3" class="node">
<title>Check Hardware</title>
<ellipse fill="gray" stroke="black" cx="55.18" cy="-109.63" rx="55.18" ry="18"/>
<text xml:space="preserve" text-anchor="middle" x="55.18" y="-106.71" font-family="Times,serif" font-size="9.00">Check Hardware</text>
</g>
<!-- Initialization&#45;&gt;Check Hardware -->
<g id="edge2" class="edge">
<title>Initialization&#45;&gt;Check Hardware</title>
<path fill="none" stroke="black" d="M165.49,-175.64C143.67,-162.78 113.93,-145.26 90.83,-131.64"/>
<polygon fill="black" stroke="black" points="92.75,-128.72 82.36,-126.65 89.2,-134.75 92.75,-128.72"/>
</g>
<!-- Safe Start Position -->
<g id="node4" class="node">
<title>Safe Start Position</title>
<ellipse fill="gray" stroke="black" cx="195.18" cy="-109.63" rx="60.06" ry="18"/>
<text xml:space="preserve" text-anchor="middle" x="195.18" y="-106.71" font-family="Times,serif" font-size="9.00">Safe Start Position</text>
</g>
<!-- Initialization&#45;&gt;Safe Start Position -->
<g id="edge3" class="edge">
<title>Initialization&#45;&gt;Safe Start Position</title>
<path fill="none" stroke="black" d="M195.18,-175.64C195.18,-165.14 195.18,-151.52 195.18,-139.47"/>
<polygon fill="black" stroke="black" points="198.68,-139.62 195.18,-129.62 191.68,-139.62 198.68,-139.62"/>
</g>
<!-- Map already exists? -->
<g id="node6" class="node">
<title>Map already exists?</title>
<ellipse fill="gray" stroke="black" cx="344.18" cy="-109.63" rx="63.61" ry="18"/>
<text xml:space="preserve" text-anchor="middle" x="344.18" y="-106.71" font-family="Times,serif" font-size="9.00">Map already exists?</text>
</g>
<!-- Mapping Phase&#45;&gt;Map already exists? -->
<g id="edge5" class="edge">
<title>Mapping Phase&#45;&gt;Map already exists?</title>
<path fill="none" stroke="black" d="M489.53,-178.38C460.76,-164.98 418.1,-145.09 386.43,-130.33"/>
<polygon fill="black" stroke="black" points="388.06,-127.23 377.51,-126.17 385.1,-133.57 388.06,-127.23"/>
</g>
<!-- Build Map -->
<g id="node7" class="node">
<title>Build Map</title>
<polygon fill="gold" stroke="black" points="609.3,-140.13 469.11,-140.13 433.05,-79.13 573.24,-79.13 609.3,-140.13"/>
<text xml:space="preserve" text-anchor="middle" x="521.18" y="-112.33" font-family="Times,serif" font-size="9.00">Build Map</text>
<text xml:space="preserve" text-anchor="middle" x="521.18" y="-101.08" font-family="Times,serif" font-size="9.00">SuccessOnOne</text>
</g>
<!-- Mapping Phase&#45;&gt;Build Map -->
<g id="edge6" class="edge">
<title>Mapping Phase&#45;&gt;Build Map</title>
<path fill="none" stroke="black" d="M521.18,-175.64C521.18,-168.61 521.18,-160.2 521.18,-151.78"/>
<polygon fill="black" stroke="black" points="524.68,-151.96 521.18,-141.96 517.68,-151.96 524.68,-151.96"/>
</g>
<!-- Update Map (LiDAR) -->
<g id="node8" class="node">
<title>Update Map (LiDAR)</title>
<ellipse fill="gray" stroke="black" cx="321.18" cy="-21.57" rx="67.16" ry="18"/>
<text xml:space="preserve" text-anchor="middle" x="321.18" y="-18.64" font-family="Times,serif" font-size="9.00">Update Map (LiDAR)</text>
</g>
<!-- Build Map&#45;&gt;Update Map (LiDAR) -->
<g id="edge7" class="edge">
<title>Build Map&#45;&gt;Update Map (LiDAR)</title>
<path fill="none" stroke="black" d="M451.51,-78.65C423.1,-66.43 391.08,-52.65 365.89,-41.81"/>
<polygon fill="black" stroke="black" points="367.5,-38.69 356.93,-37.95 364.74,-45.12 367.5,-38.69"/>
</g>
<!-- Drive Around Counter -->
<g id="node9" class="node">
<title>Drive Around Counter</title>
<ellipse fill="gray" stroke="black" cx="484.18" cy="-21.57" rx="70.71" ry="18"/>
<text xml:space="preserve" text-anchor="middle" x="484.18" y="-18.64" font-family="Times,serif" font-size="9.00">Drive Around Counter</text>
</g>
<!-- Build Map&#45;&gt;Drive Around Counter -->
<g id="edge8" class="edge">
<title>Build Map&#45;&gt;Drive Around Counter</title>
<path fill="none" stroke="black" d="M508.44,-79.01C504.46,-69.75 500.08,-59.56 496.15,-50.42"/>
<polygon fill="black" stroke="black" points="499.4,-49.12 492.24,-41.32 492.97,-51.89 499.4,-49.12"/>
</g>
<!-- Find Object 1 -->
<g id="node12" class="node">
<title>Find Object 1</title>
<polygon fill="cyan" stroke="black" points="795.08,-102.18 795.08,-117.09 758.82,-127.63 707.53,-127.63 671.27,-117.09 671.27,-102.18 707.53,-91.63 758.82,-91.63 795.08,-102.18"/>
<text xml:space="preserve" text-anchor="middle" x="733.18" y="-107.83" font-family="Times,serif" font-size="9.00">Ⓜ Find Object 1</text>
</g>
<!-- Handle Jar 1&#45;&gt;Find Object 1 -->
<g id="edge11" class="edge">
<title>Handle Jar 1&#45;&gt;Find Object 1</title>
<path fill="none" stroke="black" d="M948.53,-179.23C903.33,-164.83 832.71,-142.34 784.77,-127.07"/>
<polygon fill="black" stroke="black" points="786.04,-123.8 775.45,-124.1 783.91,-130.47 786.04,-123.8"/>
</g>
<!-- Approach 1 -->
<g id="node15" class="node">
<title>Approach 1</title>
<polygon fill="orange" stroke="black" points="968.18,-127.63 886.18,-127.63 886.18,-91.63 968.18,-91.63 968.18,-127.63"/>
<text xml:space="preserve" text-anchor="middle" x="927.18" y="-107.83" font-family="Times,serif" font-size="9.00">Ⓜ Approach 1</text>
</g>
<!-- Handle Jar 1&#45;&gt;Approach 1 -->
<g id="edge14" class="edge">
<title>Handle Jar 1&#45;&gt;Approach 1</title>
<path fill="none" stroke="black" d="M978.39,-175.64C969.51,-164.37 957.81,-149.52 947.84,-136.86"/>
<polygon fill="black" stroke="black" points="950.82,-134.98 941.88,-129.29 945.32,-139.31 950.82,-134.98"/>
</g>
<!-- Grasp 1\n(force feedback) -->
<g id="node18" class="node">
<title>Grasp 1\n(force feedback)</title>
<ellipse fill="gray" stroke="black" cx="1057.18" cy="-109.63" rx="64.35" ry="21.57"/>
<text xml:space="preserve" text-anchor="middle" x="1057.18" y="-112.33" font-family="Times,serif" font-size="9.00">Grasp 1</text>
<text xml:space="preserve" text-anchor="middle" x="1057.18" y="-101.08" font-family="Times,serif" font-size="9.00">(force feedback)</text>
</g>
<!-- Handle Jar 1&#45;&gt;Grasp 1\n(force feedback) -->
<g id="edge17" class="edge">
<title>Handle Jar 1&#45;&gt;Grasp 1\n(force feedback)</title>
<path fill="none" stroke="black" d="M1005.96,-175.64C1014.22,-165.16 1024.92,-151.58 1034.4,-139.54"/>
<polygon fill="black" stroke="black" points="1036.98,-141.93 1040.42,-131.91 1031.48,-137.59 1036.98,-141.93"/>
</g>
<!-- Transport 1 -->
<g id="node19" class="node">
<title>Transport 1</title>
<polygon fill="orange" stroke="black" points="1473.55,-127.63 1390.8,-127.63 1390.8,-91.63 1473.55,-91.63 1473.55,-127.63"/>
<text xml:space="preserve" text-anchor="middle" x="1432.18" y="-107.83" font-family="Times,serif" font-size="9.00">Ⓜ Transport 1</text>
</g>
<!-- Handle Jar 1&#45;&gt;Transport 1 -->
<g id="edge18" class="edge">
<title>Handle Jar 1&#45;&gt;Transport 1</title>
<path fill="none" stroke="black" d="M1035.57,-185C1116.7,-169.79 1291.09,-137.09 1379.08,-120.59"/>
<polygon fill="black" stroke="black" points="1379.73,-124.03 1388.91,-118.75 1378.44,-117.15 1379.73,-124.03"/>
</g>
<!-- Recognize 1 -->
<g id="node13" class="node">
<title>Recognize 1</title>
<ellipse fill="gray" stroke="black" cx="622.18" cy="-21.57" rx="42.75" ry="18"/>
<text xml:space="preserve" text-anchor="middle" x="622.18" y="-18.64" font-family="Times,serif" font-size="9.00">Recognize 1</text>
</g>
<!-- Find Object 1&#45;&gt;Recognize 1 -->
<g id="edge12" class="edge">
<title>Find Object 1&#45;&gt;Recognize 1</title>
<path fill="none" stroke="black" d="M710.71,-91.22C693.48,-77.85 669.56,-59.31 650.93,-44.86"/>
<polygon fill="black" stroke="black" points="653.24,-42.23 643.2,-38.87 648.95,-47.76 653.24,-42.23"/>
</g>
<!-- 360° Scan 1 -->
<g id="node14" class="node">
<title>360° Scan 1</title>
<ellipse fill="gray" stroke="black" cx="733.18" cy="-21.57" rx="43.19" ry="18"/>
<text xml:space="preserve" text-anchor="middle" x="733.18" y="-18.64" font-family="Times,serif" font-size="9.00">360° Scan 1</text>
</g>
<!-- Find Object 1&#45;&gt;360° Scan 1 -->
<g id="edge13" class="edge">
<title>Find Object 1&#45;&gt;360° Scan 1</title>
<path fill="none" stroke="black" d="M733.18,-91.22C733.18,-79.78 733.18,-64.56 733.18,-51.35"/>
<polygon fill="black" stroke="black" points="736.68,-51.47 733.18,-41.47 729.68,-51.47 736.68,-51.47"/>
</g>
<!-- Prepare Arm 1 -->
<g id="node16" class="node">
<title>Prepare Arm 1</title>
<ellipse fill="gray" stroke="black" cx="851.18" cy="-21.57" rx="49.85" ry="18"/>
<text xml:space="preserve" text-anchor="middle" x="851.18" y="-18.64" font-family="Times,serif" font-size="9.00">Prepare Arm 1</text>
</g>
<!-- Approach 1&#45;&gt;Prepare Arm 1 -->
<g id="edge15" class="edge">
<title>Approach 1&#45;&gt;Prepare Arm 1</title>
<path fill="none" stroke="black" d="M911.8,-91.22C900.66,-78.61 885.45,-61.38 873.05,-47.34"/>
<polygon fill="black" stroke="black" points="876,-45.4 866.76,-40.22 870.76,-50.03 876,-45.4"/>
</g>
<!-- Move to Object 1\n(Nav + IK) -->
<g id="node17" class="node">
<title>Move to Object 1\n(Nav + IK)</title>
<ellipse fill="gray" stroke="black" cx="993.18" cy="-21.57" rx="67.53" ry="21.57"/>
<text xml:space="preserve" text-anchor="middle" x="993.18" y="-24.27" font-family="Times,serif" font-size="9.00">Move to Object 1</text>
<text xml:space="preserve" text-anchor="middle" x="993.18" y="-13.02" font-family="Times,serif" font-size="9.00">(Nav + IK)</text>
</g>
<!-- Approach 1&#45;&gt;Move to Object 1\n(Nav + IK) -->
<g id="edge16" class="edge">
<title>Approach 1&#45;&gt;Move to Object 1\n(Nav + IK)</title>
<path fill="none" stroke="black" d="M940.53,-91.22C949.14,-79.99 960.55,-65.11 970.55,-52.07"/>
<polygon fill="black" stroke="black" points="973.29,-54.25 976.6,-44.18 967.74,-49.99 973.29,-54.25"/>
</g>
<!-- Lift &amp; Verify 1 -->
<g id="node20" class="node">
<title>Lift &amp; Verify 1</title>
<ellipse fill="gray" stroke="black" cx="1134.18" cy="-21.57" rx="48.52" ry="18"/>
<text xml:space="preserve" text-anchor="middle" x="1134.18" y="-18.64" font-family="Times,serif" font-size="9.00">Lift &amp; Verify 1</text>
</g>
<!-- Transport 1&#45;&gt;Lift &amp; Verify 1 -->
<g id="edge19" class="edge">
<title>Transport 1&#45;&gt;Lift &amp; Verify 1</title>
<path fill="none" stroke="black" d="M1390.45,-97.85C1342.94,-85.4 1263.13,-63.96 1195.18,-43.13 1190.04,-41.56 1184.68,-39.85 1179.36,-38.11"/>
<polygon fill="black" stroke="black" points="1180.62,-34.84 1170.02,-35.02 1178.41,-41.49 1180.62,-34.84"/>
</g>
<!-- Backup 1 -->
<g id="node21" class="node">
<title>Backup 1</title>
<ellipse fill="gray" stroke="black" cx="1243.18" cy="-21.57" rx="35.21" ry="18"/>
<text xml:space="preserve" text-anchor="middle" x="1243.18" y="-18.64" font-family="Times,serif" font-size="9.00">Backup 1</text>
</g>
<!-- Transport 1&#45;&gt;Backup 1 -->
<g id="edge20" class="edge">
<title>Transport 1&#45;&gt;Backup 1</title>
<path fill="none" stroke="black" d="M1393.93,-91.22C1360.35,-75.93 1311.87,-53.85 1279.03,-38.89"/>
<polygon fill="black" stroke="black" points="1280.88,-35.89 1270.33,-34.93 1277.98,-42.26 1280.88,-35.89"/>
</g>
<!-- Navigate to Table 1 -->
<g id="node22" class="node">
<title>Navigate to Table 1</title>
<ellipse fill="gray" stroke="black" cx="1366.18" cy="-21.57" rx="63.16" ry="18"/>
<text xml:space="preserve" text-anchor="middle" x="1366.18" y="-18.64" font-family="Times,serif" font-size="9.00">Navigate to Table 1</text>
</g>
<!-- Transport 1&#45;&gt;Navigate to Table 1 -->
<g id="edge21" class="edge">
<title>Transport 1&#45;&gt;Navigate to Table 1</title>
<path fill="none" stroke="black" d="M1418.82,-91.22C1409.45,-79 1396.77,-62.46 1386.2,-48.68"/>
<polygon fill="black" stroke="black" points="1389.07,-46.67 1380.21,-40.87 1383.52,-50.93 1389.07,-46.67"/>
</g>
<!-- Place Arm 1 -->
<g id="node23" class="node">
<title>Place Arm 1</title>
<ellipse fill="gray" stroke="black" cx="1497.18" cy="-21.57" rx="42.75" ry="18"/>
<text xml:space="preserve" text-anchor="middle" x="1497.18" y="-18.64" font-family="Times,serif" font-size="9.00">Place Arm 1</text>
</g>
<!-- Transport 1&#45;&gt;Place Arm 1 -->
<g id="edge22" class="edge">
<title>Transport 1&#45;&gt;Place Arm 1</title>
<path fill="none" stroke="black" d="M1445.33,-91.22C1454.67,-78.84 1467.37,-62.03 1477.86,-48.14"/>
<polygon fill="black" stroke="black" points="1480.56,-50.38 1483.79,-40.29 1474.97,-46.16 1480.56,-50.38"/>
</g>
<!-- Release 1 -->
<g id="node24" class="node">
<title>Release 1</title>
<ellipse fill="gray" stroke="black" cx="1600.18" cy="-21.57" rx="35.65" ry="18"/>
<text xml:space="preserve" text-anchor="middle" x="1600.18" y="-18.64" font-family="Times,serif" font-size="9.00">Release 1</text>
</g>
<!-- Transport 1&#45;&gt;Release 1 -->
<g id="edge23" class="edge">
<title>Transport 1&#45;&gt;Release 1</title>
<path fill="none" stroke="black" d="M1466.17,-91.22C1495.12,-76.39 1536.53,-55.17 1565.63,-40.26"/>
<polygon fill="black" stroke="black" points="1567.1,-43.44 1574.4,-35.77 1563.91,-37.21 1567.1,-43.44"/>
</g>
<!-- Reset Arm 1 -->
<g id="node25" class="node">
<title>Reset Arm 1</title>
<ellipse fill="gray" stroke="black" cx="1704.18" cy="-21.57" rx="43.19" ry="18"/>
<text xml:space="preserve" text-anchor="middle" x="1704.18" y="-18.64" font-family="Times,serif" font-size="9.00">Reset Arm 1</text>
</g>
<!-- Transport 1&#45;&gt;Reset Arm 1 -->
<g id="edge24" class="edge">
<title>Transport 1&#45;&gt;Reset Arm 1</title>
<path fill="none" stroke="black" d="M1473.81,-96.78C1517.47,-84.17 1587.98,-63.3 1648.18,-43.13 1652.71,-41.62 1657.42,-39.98 1662.11,-38.31"/>
<polygon fill="black" stroke="black" points="1663.25,-41.62 1671.47,-34.93 1660.87,-35.04 1663.25,-41.62"/>
</g>
<!-- Return Home 1 -->
<g id="node26" class="node">
<title>Return Home 1</title>
<ellipse fill="gray" stroke="black" cx="1823.18" cy="-21.57" rx="51.18" ry="18"/>
<text xml:space="preserve" text-anchor="middle" x="1823.18" y="-18.64" font-family="Times,serif" font-size="9.00">Return Home 1</text>
</g>
<!-- Transport 1&#45;&gt;Return Home 1 -->
<g id="edge25" class="edge">
<title>Transport 1&#45;&gt;Return Home 1</title>
<path fill="none" stroke="black" d="M1473.96,-101.92C1536.64,-91.49 1658.51,-69.78 1760.18,-43.13 1765.67,-41.69 1771.39,-40.04 1777.04,-38.32"/>
<polygon fill="black" stroke="black" points="1777.81,-41.75 1786.3,-35.4 1775.71,-35.07 1777.81,-41.75"/>
</g>
<!-- Find Object 2 -->
<g id="node28" class="node">
<title>Find Object 2</title>
<polygon fill="cyan" stroke="black" points="2110.08,-102.18 2110.08,-117.09 2073.82,-127.63 2022.53,-127.63 1986.27,-117.09 1986.27,-102.18 2022.53,-91.63 2073.82,-91.63 2110.08,-102.18"/>
<text xml:space="preserve" text-anchor="middle" x="2048.18" y="-107.83" font-family="Times,serif" font-size="9.00">Ⓜ Find Object 2</text>
</g>
<!-- Handle Jar 2&#45;&gt;Find Object 2 -->
<g id="edge27" class="edge">
<title>Handle Jar 2&#45;&gt;Find Object 2</title>
<path fill="none" stroke="black" d="M2149.03,-175.64C2130.24,-163.52 2105.01,-147.27 2084.49,-134.04"/>
<polygon fill="black" stroke="black" points="2086.42,-131.12 2076.12,-128.64 2082.62,-137 2086.42,-131.12"/>
</g>
<!-- Approach 2 -->
<g id="node31" class="node">
<title>Approach 2</title>
<polygon fill="orange" stroke="black" points="2217.18,-127.63 2135.18,-127.63 2135.18,-91.63 2217.18,-91.63 2217.18,-127.63"/>
<text xml:space="preserve" text-anchor="middle" x="2176.18" y="-107.83" font-family="Times,serif" font-size="9.00">Ⓜ Approach 2</text>
</g>
<!-- Handle Jar 2&#45;&gt;Approach 2 -->
<g id="edge30" class="edge">
<title>Handle Jar 2&#45;&gt;Approach 2</title>
<path fill="none" stroke="black" d="M2176.18,-175.64C2176.18,-165.14 2176.18,-151.52 2176.18,-139.47"/>
<polygon fill="black" stroke="black" points="2179.68,-139.62 2176.18,-129.62 2172.68,-139.62 2179.68,-139.62"/>
</g>
<!-- Grasp 2\n(force feedback) -->
<g id="node34" class="node">
<title>Grasp 2\n(force feedback)</title>
<ellipse fill="gray" stroke="black" cx="2306.18" cy="-109.63" rx="64.35" ry="21.57"/>
<text xml:space="preserve" text-anchor="middle" x="2306.18" y="-112.33" font-family="Times,serif" font-size="9.00">Grasp 2</text>
<text xml:space="preserve" text-anchor="middle" x="2306.18" y="-101.08" font-family="Times,serif" font-size="9.00">(force feedback)</text>
</g>
<!-- Handle Jar 2&#45;&gt;Grasp 2\n(force feedback) -->
<g id="edge33" class="edge">
<title>Handle Jar 2&#45;&gt;Grasp 2\n(force feedback)</title>
<path fill="none" stroke="black" d="M2203.75,-175.64C2222.19,-163.93 2246.74,-148.35 2267.18,-135.38"/>
<polygon fill="black" stroke="black" points="2268.99,-138.38 2275.56,-130.06 2265.24,-132.47 2268.99,-138.38"/>
</g>
<!-- Transport 2 -->
<g id="node35" class="node">
<title>Transport 2</title>
<polygon fill="orange" stroke="black" points="2792.55,-127.63 2709.8,-127.63 2709.8,-91.63 2792.55,-91.63 2792.55,-127.63"/>
<text xml:space="preserve" text-anchor="middle" x="2751.18" y="-107.83" font-family="Times,serif" font-size="9.00">Ⓜ Transport 2</text>
</g>
<!-- Handle Jar 2&#45;&gt;Transport 2 -->
<g id="edge34" class="edge">
<title>Handle Jar 2&#45;&gt;Transport 2</title>
<path fill="none" stroke="black" d="M2219.87,-186.86C2323.88,-171.94 2585.87,-134.35 2698.44,-118.2"/>
<polygon fill="black" stroke="black" points="2698.6,-121.71 2708,-116.83 2697.6,-114.78 2698.6,-121.71"/>
</g>
<!-- Recognize 2 -->
<g id="node29" class="node">
<title>Recognize 2</title>
<ellipse fill="gray" stroke="black" cx="1942.18" cy="-21.57" rx="42.75" ry="18"/>
<text xml:space="preserve" text-anchor="middle" x="1942.18" y="-18.64" font-family="Times,serif" font-size="9.00">Recognize 2</text>
</g>
<!-- Find Object 2&#45;&gt;Recognize 2 -->
<g id="edge28" class="edge">
<title>Find Object 2&#45;&gt;Recognize 2</title>
<path fill="none" stroke="black" d="M2026.73,-91.22C2010.34,-77.92 1987.64,-59.48 1969.88,-45.06"/>
<polygon fill="black" stroke="black" points="1972.25,-42.48 1962.28,-38.89 1967.84,-47.91 1972.25,-42.48"/>
</g>
<!-- 360° Scan 2 -->
<g id="node30" class="node">
<title>360° Scan 2</title>
<ellipse fill="gray" stroke="black" cx="2053.18" cy="-21.57" rx="43.19" ry="18"/>
<text xml:space="preserve" text-anchor="middle" x="2053.18" y="-18.64" font-family="Times,serif" font-size="9.00">360° Scan 2</text>
</g>
<!-- Find Object 2&#45;&gt;360° Scan 2 -->
<g id="edge29" class="edge">
<title>Find Object 2&#45;&gt;360° Scan 2</title>
<path fill="none" stroke="black" d="M2049.19,-91.22C2049.85,-79.78 2050.74,-64.56 2051.5,-51.35"/>
<polygon fill="black" stroke="black" points="2054.99,-51.65 2052.08,-41.47 2048,-51.25 2054.99,-51.65"/>
</g>
<!-- Prepare Arm 2 -->
<g id="node32" class="node">
<title>Prepare Arm 2</title>
<ellipse fill="gray" stroke="black" cx="2171.18" cy="-21.57" rx="49.85" ry="18"/>
<text xml:space="preserve" text-anchor="middle" x="2171.18" y="-18.64" font-family="Times,serif" font-size="9.00">Prepare Arm 2</text>
</g>
<!-- Approach 2&#45;&gt;Prepare Arm 2 -->
<g id="edge31" class="edge">
<title>Approach 2&#45;&gt;Prepare Arm 2</title>
<path fill="none" stroke="black" d="M2175.16,-91.22C2174.5,-79.78 2173.62,-64.56 2172.85,-51.35"/>
<polygon fill="black" stroke="black" points="2176.35,-51.25 2172.27,-41.47 2169.36,-51.65 2176.35,-51.25"/>
</g>
<!-- Move to Object 2\n(Nav + IK) -->
<g id="node33" class="node">
<title>Move to Object 2\n(Nav + IK)</title>
<ellipse fill="gray" stroke="black" cx="2313.18" cy="-21.57" rx="67.53" ry="21.57"/>
<text xml:space="preserve" text-anchor="middle" x="2313.18" y="-24.27" font-family="Times,serif" font-size="9.00">Move to Object 2</text>
<text xml:space="preserve" text-anchor="middle" x="2313.18" y="-13.02" font-family="Times,serif" font-size="9.00">(Nav + IK)</text>
</g>
<!-- Approach 2&#45;&gt;Move to Object 2\n(Nav + IK) -->
<g id="edge32" class="edge">
<title>Approach 2&#45;&gt;Move to Object 2\n(Nav + IK)</title>
<path fill="none" stroke="black" d="M2203.9,-91.22C2224.06,-78.55 2251.63,-61.23 2274.03,-47.16"/>
<polygon fill="black" stroke="black" points="2275.71,-50.24 2282.31,-41.95 2271.99,-44.31 2275.71,-50.24"/>
</g>
<!-- Lift &amp; Verify 2 -->
<g id="node36" class="node">
<title>Lift &amp; Verify 2</title>
<ellipse fill="gray" stroke="black" cx="2454.18" cy="-21.57" rx="48.52" ry="18"/>
<text xml:space="preserve" text-anchor="middle" x="2454.18" y="-18.64" font-family="Times,serif" font-size="9.00">Lift &amp; Verify 2</text>
</g>
<!-- Transport 2&#45;&gt;Lift &amp; Verify 2 -->
<g id="edge35" class="edge">
<title>Transport 2&#45;&gt;Lift &amp; Verify 2</title>
<path fill="none" stroke="black" d="M2709.62,-97.83C2662.33,-85.37 2582.85,-63.92 2515.18,-43.13 2510.04,-41.56 2504.68,-39.84 2499.36,-38.11"/>
<polygon fill="black" stroke="black" points="2500.62,-34.84 2490.02,-35.01 2498.41,-41.48 2500.62,-34.84"/>
</g>
<!-- Backup 2 -->
<g id="node37" class="node">
<title>Backup 2</title>
<ellipse fill="gray" stroke="black" cx="2563.18" cy="-21.57" rx="35.21" ry="18"/>
<text xml:space="preserve" text-anchor="middle" x="2563.18" y="-18.64" font-family="Times,serif" font-size="9.00">Backup 2</text>
</g>
<!-- Transport 2&#45;&gt;Backup 2 -->
<g id="edge36" class="edge">
<title>Transport 2&#45;&gt;Backup 2</title>
<path fill="none" stroke="black" d="M2713.13,-91.22C2679.87,-75.99 2631.93,-54.04 2599.26,-39.09"/>
<polygon fill="black" stroke="black" points="2600.74,-35.91 2590.19,-34.93 2597.83,-42.28 2600.74,-35.91"/>
</g>
<!-- Navigate to Table 2 -->
<g id="node38" class="node">
<title>Navigate to Table 2</title>
<ellipse fill="gray" stroke="black" cx="2686.18" cy="-21.57" rx="63.16" ry="18"/>
<text xml:space="preserve" text-anchor="middle" x="2686.18" y="-18.64" font-family="Times,serif" font-size="9.00">Navigate to Table 2</text>
</g>
<!-- Transport 2&#45;&gt;Navigate to Table 2 -->
<g id="edge37" class="edge">
<title>Transport 2&#45;&gt;Navigate to Table 2</title>
<path fill="none" stroke="black" d="M2738.02,-91.22C2728.8,-79 2716.31,-62.46 2705.9,-48.68"/>
<polygon fill="black" stroke="black" points="2708.82,-46.74 2700,-40.87 2703.23,-50.96 2708.82,-46.74"/>
</g>
<!-- Place Arm 2 -->
<g id="node39" class="node">
<title>Place Arm 2</title>
<ellipse fill="gray" stroke="black" cx="2817.18" cy="-21.57" rx="42.75" ry="18"/>
<text xml:space="preserve" text-anchor="middle" x="2817.18" y="-18.64" font-family="Times,serif" font-size="9.00">Place Arm 2</text>
</g>
<!-- Transport 2&#45;&gt;Place Arm 2 -->
<g id="edge38" class="edge">
<title>Transport 2&#45;&gt;Place Arm 2</title>
<path fill="none" stroke="black" d="M2764.53,-91.22C2774.02,-78.84 2786.91,-62.03 2797.56,-48.14"/>
<polygon fill="black" stroke="black" points="2800.28,-50.35 2803.59,-40.28 2794.73,-46.09 2800.28,-50.35"/>
</g>
<!-- Release 2 -->
<g id="node40" class="node">
<title>Release 2</title>
<ellipse fill="gray" stroke="black" cx="2920.18" cy="-21.57" rx="35.65" ry="18"/>
<text xml:space="preserve" text-anchor="middle" x="2920.18" y="-18.64" font-family="Times,serif" font-size="9.00">Release 2</text>
</g>
<!-- Transport 2&#45;&gt;Release 2 -->
<g id="edge39" class="edge">
<title>Transport 2&#45;&gt;Release 2</title>
<path fill="none" stroke="black" d="M2785.38,-91.22C2814.5,-76.39 2856.15,-55.17 2885.42,-40.26"/>
<polygon fill="black" stroke="black" points="2886.93,-43.42 2894.26,-35.77 2883.76,-37.19 2886.93,-43.42"/>
</g>
<!-- Reset Arm 2 -->
<g id="node41" class="node">
<title>Reset Arm 2</title>
<ellipse fill="gray" stroke="black" cx="3024.18" cy="-21.57" rx="43.19" ry="18"/>
<text xml:space="preserve" text-anchor="middle" x="3024.18" y="-18.64" font-family="Times,serif" font-size="9.00">Reset Arm 2</text>
</g>
<!-- Transport 2&#45;&gt;Reset Arm 2 -->
<g id="edge40" class="edge">
<title>Transport 2&#45;&gt;Reset Arm 2</title>
<path fill="none" stroke="black" d="M2793.01,-96.8C2836.88,-84.2 2907.71,-63.34 2968.18,-43.13 2972.71,-41.62 2977.42,-39.98 2982.11,-38.32"/>
<polygon fill="black" stroke="black" points="2983.25,-41.63 2991.47,-34.94 2980.88,-35.04 2983.25,-41.63"/>
</g>
<!-- Return Home 2 -->
<g id="node42" class="node">
<title>Return Home 2</title>
<ellipse fill="gray" stroke="black" cx="3143.18" cy="-21.57" rx="51.18" ry="18"/>
<text xml:space="preserve" text-anchor="middle" x="3143.18" y="-18.64" font-family="Times,serif" font-size="9.00">Return Home 2</text>
</g>
<!-- Transport 2&#45;&gt;Return Home 2 -->
<g id="edge41" class="edge">
<title>Transport 2&#45;&gt;Return Home 2</title>
<path fill="none" stroke="black" d="M2792.83,-101.98C2855.62,-91.58 2978.06,-69.87 3080.18,-43.13 3085.67,-41.7 3091.39,-40.05 3097.04,-38.32"/>
<polygon fill="black" stroke="black" points="3097.81,-41.75 3106.3,-35.41 3095.71,-35.07 3097.81,-41.75"/>
</g>
<!-- Find Object 3 -->
<g id="node44" class="node">
<title>Find Object 3</title>
<polygon fill="cyan" stroke="black" points="3430.08,-102.18 3430.08,-117.09 3393.82,-127.63 3342.53,-127.63 3306.27,-117.09 3306.27,-102.18 3342.53,-91.63 3393.82,-91.63 3430.08,-102.18"/>
<text xml:space="preserve" text-anchor="middle" x="3368.18" y="-107.83" font-family="Times,serif" font-size="9.00">Ⓜ Find Object 3</text>
</g>
<!-- Handle Jar 3&#45;&gt;Find Object 3 -->
<g id="edge43" class="edge">
<title>Handle Jar 3&#45;&gt;Find Object 3</title>
<path fill="none" stroke="black" d="M3469.03,-175.64C3450.24,-163.52 3425.01,-147.27 3404.49,-134.04"/>
<polygon fill="black" stroke="black" points="3406.42,-131.12 3396.12,-128.64 3402.62,-137 3406.42,-131.12"/>
</g>
<!-- Approach 3 -->
<g id="node47" class="node">
<title>Approach 3</title>
<polygon fill="orange" stroke="black" points="3537.18,-127.63 3455.18,-127.63 3455.18,-91.63 3537.18,-91.63 3537.18,-127.63"/>
<text xml:space="preserve" text-anchor="middle" x="3496.18" y="-107.83" font-family="Times,serif" font-size="9.00">Ⓜ Approach 3</text>
</g>
<!-- Handle Jar 3&#45;&gt;Approach 3 -->
<g id="edge46" class="edge">
<title>Handle Jar 3&#45;&gt;Approach 3</title>
<path fill="none" stroke="black" d="M3496.18,-175.64C3496.18,-165.14 3496.18,-151.52 3496.18,-139.47"/>
<polygon fill="black" stroke="black" points="3499.68,-139.62 3496.18,-129.62 3492.68,-139.62 3499.68,-139.62"/>
</g>
<!-- Grasp 3\n(force feedback) -->
<g id="node50" class="node">
<title>Grasp 3\n(force feedback)</title>
<ellipse fill="gray" stroke="black" cx="3626.18" cy="-109.63" rx="64.35" ry="21.57"/>
<text xml:space="preserve" text-anchor="middle" x="3626.18" y="-112.33" font-family="Times,serif" font-size="9.00">Grasp 3</text>
<text xml:space="preserve" text-anchor="middle" x="3626.18" y="-101.08" font-family="Times,serif" font-size="9.00">(force feedback)</text>
</g>
<!-- Handle Jar 3&#45;&gt;Grasp 3\n(force feedback) -->
<g id="edge49" class="edge">
<title>Handle Jar 3&#45;&gt;Grasp 3\n(force feedback)</title>
<path fill="none" stroke="black" d="M3523.75,-175.64C3542.19,-163.93 3566.74,-148.35 3587.18,-135.38"/>
<polygon fill="black" stroke="black" points="3588.99,-138.38 3595.56,-130.06 3585.24,-132.47 3588.99,-138.38"/>
</g>
<!-- Transport 3 -->
<g id="node51" class="node">
<title>Transport 3</title>
<polygon fill="orange" stroke="black" points="4112.55,-127.63 4029.8,-127.63 4029.8,-91.63 4112.55,-91.63 4112.55,-127.63"/>
<text xml:space="preserve" text-anchor="middle" x="4071.18" y="-107.83" font-family="Times,serif" font-size="9.00">Ⓜ Transport 3</text>
</g>
<!-- Handle Jar 3&#45;&gt;Transport 3 -->
<g id="edge50" class="edge">
<title>Handle Jar 3&#45;&gt;Transport 3</title>
<path fill="none" stroke="black" d="M3539.87,-186.86C3643.88,-171.94 3905.87,-134.35 4018.44,-118.2"/>
<polygon fill="black" stroke="black" points="4018.6,-121.71 4028,-116.83 4017.6,-114.78 4018.6,-121.71"/>
</g>
<!-- Recognize 3 -->
<g id="node45" class="node">
<title>Recognize 3</title>
<ellipse fill="gray" stroke="black" cx="3262.18" cy="-21.57" rx="42.75" ry="18"/>
<text xml:space="preserve" text-anchor="middle" x="3262.18" y="-18.64" font-family="Times,serif" font-size="9.00">Recognize 3</text>
</g>
<!-- Find Object 3&#45;&gt;Recognize 3 -->
<g id="edge44" class="edge">
<title>Find Object 3&#45;&gt;Recognize 3</title>
<path fill="none" stroke="black" d="M3346.73,-91.22C3330.34,-77.92 3307.64,-59.48 3289.88,-45.06"/>
<polygon fill="black" stroke="black" points="3292.25,-42.48 3282.28,-38.89 3287.84,-47.91 3292.25,-42.48"/>
</g>
<!-- 360° Scan 3 -->
<g id="node46" class="node">
<title>360° Scan 3</title>
<ellipse fill="gray" stroke="black" cx="3373.18" cy="-21.57" rx="43.19" ry="18"/>
<text xml:space="preserve" text-anchor="middle" x="3373.18" y="-18.64" font-family="Times,serif" font-size="9.00">360° Scan 3</text>
</g>
<!-- Find Object 3&#45;&gt;360° Scan 3 -->
<g id="edge45" class="edge">
<title>Find Object 3&#45;&gt;360° Scan 3</title>
<path fill="none" stroke="black" d="M3369.19,-91.22C3369.85,-79.78 3370.74,-64.56 3371.5,-51.35"/>
<polygon fill="black" stroke="black" points="3374.99,-51.65 3372.08,-41.47 3368,-51.25 3374.99,-51.65"/>
</g>
<!-- Prepare Arm 3 -->
<g id="node48" class="node">
<title>Prepare Arm 3</title>
<ellipse fill="gray" stroke="black" cx="3491.18" cy="-21.57" rx="49.85" ry="18"/>
<text xml:space="preserve" text-anchor="middle" x="3491.18" y="-18.64" font-family="Times,serif" font-size="9.00">Prepare Arm 3</text>
</g>
<!-- Approach 3&#45;&gt;Prepare Arm 3 -->
<g id="edge47" class="edge">
<title>Approach 3&#45;&gt;Prepare Arm 3</title>
<path fill="none" stroke="black" d="M3495.16,-91.22C3494.5,-79.78 3493.62,-64.56 3492.85,-51.35"/>
<polygon fill="black" stroke="black" points="3496.35,-51.25 3492.27,-41.47 3489.36,-51.65 3496.35,-51.25"/>
</g>
<!-- Move to Object 3\n(Nav + IK) -->
<g id="node49" class="node">
<title>Move to Object 3\n(Nav + IK)</title>
<ellipse fill="gray" stroke="black" cx="3633.18" cy="-21.57" rx="67.53" ry="21.57"/>
<text xml:space="preserve" text-anchor="middle" x="3633.18" y="-24.27" font-family="Times,serif" font-size="9.00">Move to Object 3</text>
<text xml:space="preserve" text-anchor="middle" x="3633.18" y="-13.02" font-family="Times,serif" font-size="9.00">(Nav + IK)</text>
</g>
<!-- Approach 3&#45;&gt;Move to Object 3\n(Nav + IK) -->
<g id="edge48" class="edge">
<title>Approach 3&#45;&gt;Move to Object 3\n(Nav + IK)</title>
<path fill="none" stroke="black" d="M3523.9,-91.22C3544.06,-78.55 3571.63,-61.23 3594.03,-47.16"/>
<polygon fill="black" stroke="black" points="3595.71,-50.24 3602.31,-41.95 3591.99,-44.31 3595.71,-50.24"/>
</g>
<!-- Lift &amp; Verify 3 -->
<g id="node52" class="node">
<title>Lift &amp; Verify 3</title>
<ellipse fill="gray" stroke="black" cx="3774.18" cy="-21.57" rx="48.52" ry="18"/>
<text xml:space="preserve" text-anchor="middle" x="3774.18" y="-18.64" font-family="Times,serif" font-size="9.00">Lift &amp; Verify 3</text>
</g>
<!-- Transport 3&#45;&gt;Lift &amp; Verify 3 -->
<g id="edge51" class="edge">
<title>Transport 3&#45;&gt;Lift &amp; Verify 3</title>
<path fill="none" stroke="black" d="M4029.62,-97.83C3982.33,-85.37 3902.85,-63.92 3835.18,-43.13 3830.04,-41.56 3824.68,-39.84 3819.36,-38.11"/>
<polygon fill="black" stroke="black" points="3820.62,-34.84 3810.02,-35.01 3818.41,-41.48 3820.62,-34.84"/>
</g>
<!-- Backup 3 -->
<g id="node53" class="node">
<title>Backup 3</title>
<ellipse fill="gray" stroke="black" cx="3883.18" cy="-21.57" rx="35.21" ry="18"/>
<text xml:space="preserve" text-anchor="middle" x="3883.18" y="-18.64" font-family="Times,serif" font-size="9.00">Backup 3</text>
</g>
<!-- Transport 3&#45;&gt;Backup 3 -->
<g id="edge52" class="edge">
<title>Transport 3&#45;&gt;Backup 3</title>
<path fill="none" stroke="black" d="M4033.13,-91.22C3999.87,-75.99 3951.93,-54.04 3919.26,-39.09"/>
<polygon fill="black" stroke="black" points="3920.74,-35.91 3910.19,-34.93 3917.83,-42.28 3920.74,-35.91"/>
</g>
<!-- Navigate to Table 3 -->
<g id="node54" class="node">
<title>Navigate to Table 3</title>
<ellipse fill="gray" stroke="black" cx="4006.18" cy="-21.57" rx="63.16" ry="18"/>
<text xml:space="preserve" text-anchor="middle" x="4006.18" y="-18.64" font-family="Times,serif" font-size="9.00">Navigate to Table 3</text>
</g>
<!-- Transport 3&#45;&gt;Navigate to Table 3 -->
<g id="edge53" class="edge">
<title>Transport 3&#45;&gt;Navigate to Table 3</title>
<path fill="none" stroke="black" d="M4058.02,-91.22C4048.8,-79 4036.31,-62.46 4025.9,-48.68"/>
<polygon fill="black" stroke="black" points="4028.82,-46.74 4020,-40.87 4023.23,-50.96 4028.82,-46.74"/>
</g>
<!-- Place Arm 3 -->
<g id="node55" class="node">
<title>Place Arm 3</title>
<ellipse fill="gray" stroke="black" cx="4137.18" cy="-21.57" rx="42.75" ry="18"/>
<text xml:space="preserve" text-anchor="middle" x="4137.18" y="-18.64" font-family="Times,serif" font-size="9.00">Place Arm 3</text>
</g>
<!-- Transport 3&#45;&gt;Place Arm 3 -->
<g id="edge54" class="edge">
<title>Transport 3&#45;&gt;Place Arm 3</title>
<path fill="none" stroke="black" d="M4084.53,-91.22C4094.02,-78.84 4106.91,-62.03 4117.56,-48.14"/>
<polygon fill="black" stroke="black" points="4120.28,-50.35 4123.59,-40.28 4114.73,-46.09 4120.28,-50.35"/>
</g>
<!-- Release 3 -->
<g id="node56" class="node">
<title>Release 3</title>
<ellipse fill="gray" stroke="black" cx="4240.18" cy="-21.57" rx="35.65" ry="18"/>
<text xml:space="preserve" text-anchor="middle" x="4240.18" y="-18.64" font-family="Times,serif" font-size="9.00">Release 3</text>
</g>
<!-- Transport 3&#45;&gt;Release 3 -->
<g id="edge55" class="edge">
<title>Transport 3&#45;&gt;Release 3</title>
<path fill="none" stroke="black" d="M4105.38,-91.22C4134.5,-76.39 4176.15,-55.17 4205.42,-40.26"/>
<polygon fill="black" stroke="black" points="4206.93,-43.42 4214.26,-35.77 4203.76,-37.19 4206.93,-43.42"/>
</g>
<!-- Reset Arm 3 -->
<g id="node57" class="node">
<title>Reset Arm 3</title>
<ellipse fill="gray" stroke="black" cx="4344.18" cy="-21.57" rx="43.19" ry="18"/>
<text xml:space="preserve" text-anchor="middle" x="4344.18" y="-18.64" font-family="Times,serif" font-size="9.00">Reset Arm 3</text>
</g>
<!-- Transport 3&#45;&gt;Reset Arm 3 -->
<g id="edge56" class="edge">
<title>Transport 3&#45;&gt;Reset Arm 3</title>
<path fill="none" stroke="black" d="M4113.01,-96.8C4156.88,-84.2 4227.71,-63.34 4288.18,-43.13 4292.71,-41.62 4297.42,-39.98 4302.11,-38.32"/>
<polygon fill="black" stroke="black" points="4303.25,-41.63 4311.47,-34.94 4300.88,-35.04 4303.25,-41.63"/>
</g>
<!-- Return Home 3 -->
<g id="node58" class="node">
<title>Return Home 3</title>
<ellipse fill="gray" stroke="black" cx="4463.18" cy="-21.57" rx="51.18" ry="18"/>
<text xml:space="preserve" text-anchor="middle" x="4463.18" y="-18.64" font-family="Times,serif" font-size="9.00">Return Home 3</text>
</g>
<!-- Transport 3&#45;&gt;Return Home 3 -->
<g id="edge57" class="edge">
<title>Transport 3&#45;&gt;Return Home 3</title>
<path fill="none" stroke="black" d="M4112.83,-101.98C4175.62,-91.58 4298.06,-69.87 4400.18,-43.13 4405.67,-41.7 4411.39,-40.05 4417.04,-38.32"/>
<polygon fill="black" stroke="black" points="4417.81,-41.75 4426.3,-35.41 4415.71,-35.07 4417.81,-41.75"/>
</g>
</g>
</svg>
